<svg xmlns="http://www.w3.org/2000/svg" viewBox="0 0 757.58 1000">
    <path d="M772.73,992.42H227.27a98.39,98.39,0,0,1-98.48-98.48V106.06A98.4,98.4,0,0,1,227.27,7.58H613.86A98.43,98.43,0,0,1,683.5,36.42L842.37,195.29a98.43,98.43,0,0,1,28.84,69.64v629a98.4,98.4,0,0,1-98.48,98.48ZM227.27,83.33a22.75,22.75,0,0,0-22.72,22.73V893.94a22.75,22.75,0,0,0,22.72,22.73H772.73a22.75,22.75,0,0,0,22.72-22.73V325.76H606.06a53.09,53.09,0,0,1-53-53V83.33ZM628.79,250H789.86c-.34-.39-.69-.77-1.06-1.14L629.93,90c-.37-.37-.75-.73-1.14-1.07ZM469.61,804.54a17.41,17.41,0,0,1-4.81-.68L415.69,789.6A17.23,17.23,0,0,1,404,768.25l109.9-378.54a17.32,17.32,0,0,1,16.54-12.44,17,17,0,0,1,4.81.69l49.11,14.26a17.23,17.23,0,0,1,11.74,21.35L486.16,792.11A17.32,17.32,0,0,1,469.61,804.54Zm-101.5-87.62h0a17.2,17.2,0,0,1-11.79-4.66l-116-108.78a17.24,17.24,0,0,1,0-25.14l116-108.78a17.23,17.23,0,0,1,24.36.79l35,37.35a17.23,17.23,0,0,1-1.18,24.73l-66.45,58.48,66.45,58.48a17.24,17.24,0,0,1,1.19,24.73l-35,37.35A17.3,17.3,0,0,1,368.11,716.92Zm263.78,0h0a17.28,17.28,0,0,1-12.57-5.45l-35-37.35a17.24,17.24,0,0,1,1.19-24.73l66.45-58.48-66.45-58.48a17.24,17.24,0,0,1-1.19-24.73l35-37.35a17.23,17.23,0,0,1,24.36-.79l116,108.77a17.23,17.23,0,0,1,0,25.15l-116,108.78A17.2,17.2,0,0,1,631.89,716.92Z" transform="translate(-121.21)" fill="#3168b1"/>
    <path d="M227.27,15.15a90.91,90.91,0,0,0-90.91,90.91V893.94a90.91,90.91,0,0,0,90.91,90.91H772.73a90.91,90.91,0,0,0,90.91-90.91v-629A90.89,90.89,0,0,0,837,200.65h0L678.14,41.78a90.9,90.9,0,0,0-64.28-26.63H227.27M772.73,924.24H227.27a30.3,30.3,0,0,1-30.3-30.3V106.06a30.3,30.3,0,0,1,30.3-30.3H560.61v197a45.45,45.45,0,0,0,45.45,45.45H803V893.94a30.3,30.3,0,0,1-30.3,30.3M802.1,257.58H621.21V76.69a30.07,30.07,0,0,1,14.08,7.94L794.16,243.5a30.16,30.16,0,0,1,7.94,14.08M530.39,384.85a9.67,9.67,0,0,0-9.27,7L411.22,770.36a9.66,9.66,0,0,0,6.58,12l49.11,14.25a9.66,9.66,0,0,0,12-6.58l109.9-378.54a9.66,9.66,0,0,0-6.58-12l-49.11-14.26a9.72,9.72,0,0,0-2.7-.38m101.5,87.62a9.64,9.64,0,0,0-7,3.06l-35,37.35a9.67,9.67,0,0,0,.66,13.86l72.92,64.17-72.92,64.17a9.67,9.67,0,0,0-.66,13.86l35,37.35a9.67,9.67,0,0,0,13.66.44L754.52,598a9.64,9.64,0,0,0,0-14.09l-116-108.77a9.64,9.64,0,0,0-6.61-2.62m-263.78,0a9.64,9.64,0,0,0-6.61,2.62l-116,108.77a9.66,9.66,0,0,0,0,14.09l116,108.78a9.67,9.67,0,0,0,13.66-.44l35-37.35a9.67,9.67,0,0,0-.66-13.86L336.6,590.91l72.91-64.17a9.66,9.66,0,0,0,.67-13.86l-35-37.35a9.66,9.66,0,0,0-7.05-3.06M227.27,0H613.86a106.05,106.05,0,0,1,75,31.06L847.72,189.93a106.12,106.12,0,0,1,31.07,75v629A106,106,0,0,1,772.73,1000H227.27A106,106,0,0,1,121.21,893.94V106.06A106,106,0,0,1,227.27,0ZM545.45,90.91H227.27a15.17,15.17,0,0,0-15.15,15.15V893.94a15.17,15.17,0,0,0,15.15,15.15H772.73a15.17,15.17,0,0,0,15.15-15.15V333.33H606.06a60.62,60.62,0,0,1-60.61-60.6Zm226.2,151.51L636.36,107.14V242.42ZM530.39,369.7a24.94,24.94,0,0,1,6.92,1l49.11,14.26a24.82,24.82,0,0,1,16.91,30.75L577.8,503.61c.31-.37.63-.73,1-1.09l35-37.36A24.81,24.81,0,0,1,648.86,464l116,108.78a24.81,24.81,0,0,1,0,36.2l-116,108.77a24.79,24.79,0,0,1-35.07-1.13l-35-37.35a24.8,24.8,0,0,1,1.71-35.6l60-52.79-60-52.8a25,25,0,0,1-8.22-15.42L493.43,794.22a24.62,24.62,0,0,1-9.06,13,25,25,0,0,1-14.76,4.87,24.58,24.58,0,0,1-6.92-1l-49.11-14.25a24.82,24.82,0,0,1-16.91-30.75L422.2,678.2c-.31.38-.63.74-1,1.1l-35,37.35a24.79,24.79,0,0,1-35.07,1.13L235.11,609a24.81,24.81,0,0,1,0-36.2L351.14,464a24.71,24.71,0,0,1,17-6.71h0a24.91,24.91,0,0,1,18.1,7.84l35,37.36a24.82,24.82,0,0,1-1.71,35.6l-60,52.79,60,52.79a25,25,0,0,1,8.21,15.43l78.83-271.54a24.63,24.63,0,0,1,9.06-13A25,25,0,0,1,530.39,369.7Z" transform="translate(-121.21)" fill="#171717"/>
</svg>
