<svg xmlns="http://www.w3.org/2000/svg" viewBox="0 0 1000 1000">
    <path d="M754.85,992.35h-.06A67.46,67.46,0,0,1,707,972.53L479.76,745.26,271.22,953.84l-1.7,1.69-2.35.42L63.68,991.63a46.93,46.93,0,0,1-8,.7A49.15,49.15,0,0,1,18.46,975,46.57,46.57,0,0,1,8.34,936.35L43.87,732.84l.41-2.36,1.7-1.69L254.65,520.13,27.44,292.9a67.67,67.67,0,0,1,0-95.67L197.32,27.32a67.65,67.65,0,0,1,95.68,0L520.25,254.58l88.2-88.21,130-130a98.48,98.48,0,0,1,139.38,0l85.7,85.7a98.46,98.46,0,0,1,0,139.37l-130,130-88.21,88.21L972.61,707a67.67,67.67,0,0,1,0,95.68L802.68,972.54A67.21,67.21,0,0,1,754.85,992.35ZM533.27,691.76l222,221.85L913.69,754.42l-95.24-95.13-68.83,68.83a22.74,22.74,0,0,1-32.14,0L696.06,706.7a22.75,22.75,0,0,1,0-32.14l68.79-68.8L692,533Zm-418.5,75.37-25,143,143.05-25.09L774.59,343.27l-118-118ZM86.35,245.44,308,466.78,466.79,308,394,235.28,325.4,303.87a22.73,22.73,0,0,1-32.13,0l-21.42-21.42a22.75,22.75,0,0,1,0-32.14l68.56-68.56L245.16,86.61ZM710.2,171.71l118,118L910,207.85a22.81,22.81,0,0,0,0-32.22L824.28,90c-1.39-1.39-7-3.6-16.13-3.6S793.41,88.56,792,90Z" transform="translate(0 0.07)" fill="#3168b1"/>
    <path d="M754.79,984.77h.06a59.92,59.92,0,0,0,42.48-17.59L967.25,797.29a60.08,60.08,0,0,0,0-85h0L734.62,479.69l93.56-93.56,130-130a91,91,0,0,0,0-128.66l-85.7-85.7a91,91,0,0,0-128.68,0L520.25,265.29,287.64,32.68a60.07,60.07,0,0,0-85,0L32.79,202.58a60.11,60.11,0,0,0,0,85L265.37,520.13l-214,214L15.81,937.65c-5.16,29.6,21.24,51,46.57,46.52l203.48-35.69,213.9-213.94L712.39,967.18a59.89,59.89,0,0,0,42.4,17.59M692,522.28l83.56,83.47-74.15,74.17a15.16,15.16,0,0,0,0,21.42l21.42,21.42a15.16,15.16,0,0,0,21.42,0l74.18-74.19L924.39,754.41,755.24,924.34,522.56,691.76,692,522.28M656.63,214.59,785.3,343.27,236.54,892.1h0l-156,27.37,27.22-156L656.63,214.59M245.16,75.9l106,105.85L277.2,255.67a15.16,15.16,0,0,0,0,21.42l21.42,21.42a15.16,15.16,0,0,0,21.42,0L394,224.57,477.5,308,308,477.49l-232.37-232L245.16,75.9m541.5,8.69h0c7.75-7.75,35.23-7.75,43,0l85.7,85.68a30.41,30.41,0,0,1,0,42.94l-87.18,87.18L699.49,171.71l87.17-87.12M754.85,999.92h-.06a75.07,75.07,0,0,1-53.13-22L479.76,756,273.19,962.58,65,999.09a54.15,54.15,0,0,1-9.35.81,56.48,56.48,0,0,1-43-20C2.2,967.41-2,951.5.88,935.05L37.23,726.82,243.94,520.13,22.08,298.26a75.24,75.24,0,0,1,0-106.39L192,22a75.19,75.19,0,0,1,106.39,0l221.9,221.9L603.09,161l130-130a106.07,106.07,0,0,1,150.1,0l85.7,85.71a106.06,106.06,0,0,1,0,150.08L756.05,479.69,978,701.61A75.21,75.21,0,0,1,978,808L808,977.89a75,75,0,0,1-53.19,22ZM544,691.75,755.22,902.89,903,754.44,818.45,670,755,733.47a30.3,30.3,0,0,1-42.84,0l-21.42-21.42a30.31,30.31,0,0,1,0-42.84l63.42-63.45-62.12-62Zm-422.17,79-22.68,130L229.21,878,763.87,343.27,656.63,236ZM97.07,245.44,308,456.07,456.07,308,394,246l-63.23,63.24a30.31,30.31,0,0,1-42.85,0l-21.42-21.42a30.34,30.34,0,0,1,0-42.85l63.2-63.2L245.16,97.32Zm623.85-73.73L828.16,279l76.46-76.47a15.22,15.22,0,0,0,0-21.5l-85.3-85.3c-1.28-.64-5.24-1.76-11.17-1.76S798.26,95.05,797,95.7Z" transform="translate(0 0.07)" fill="#171717"/>
</svg>
