<svg xmlns="http://www.w3.org/2000/svg" viewBox="0 0 1250 640.17">
    <path d="M320,812.47a312.47,312.47,0,1,1,.14-624.94H930a312.47,312.47,0,0,1,0,624.94h0A312.2,312.2,0,0,1,709,721H541a312.57,312.57,0,0,1-221,91.46Zm.14-548.72c-130.27,0-236.25,106-236.25,236.25s106,236.25,236.25,236.25h.77a235.63,235.63,0,0,0,167.89-70.86l17.95-18.31,2.24-2.29H741l2.24,2.28,18,18.29v0h0a235.67,235.67,0,0,0,167.9,70.86h.7c130.29,0,236.27-106,236.27-236.25s-106-236.25-236.25-236.25Zm-18.71,381h0a26.43,26.43,0,0,1-26.3-26.3V545H201.66a26.43,26.43,0,0,1-26.3-26.3v0h0V481.27h0A26.43,26.43,0,0,1,201.66,455h73.46V381.51h0a26.41,26.41,0,0,1,26.3-26.3H338.9a26.39,26.39,0,0,1,26.3,26.3h0V455h73.46A26.41,26.41,0,0,1,465,481.26h0v37.44h0v0a26.41,26.41,0,0,1-26.3,26.3H365.2V618.5a26.41,26.41,0,0,1-26.3,26.3H301.45Zm567.42-15.25a68.59,68.59,0,1,1,48.5-20.09A68.13,68.13,0,0,1,868.87,629.55ZM990.81,507.62a68.59,68.59,0,1,1,48.5-20.09A68.15,68.15,0,0,1,990.81,507.62Z" transform="translate(0 -179.91)" fill="#3168b1"/>
    <path d="M320.16,195.16A304.84,304.84,0,1,0,537.82,713.38H712.19A304.83,304.83,0,1,0,930,195.16H320.16m609,548.71a242,242,0,0,1-173.36-73.16l-18-18.29H512.21l-17.93,18.29a242,242,0,0,1-174.12,73.16C185.71,743.87,76.29,634.47,76.29,500S185.71,256.12,320.16,256.12H929.84c134.53,0,243.87,109.4,243.87,243.88S1064.3,743.87,929.84,743.87h-.72m-627.67-381a18.79,18.79,0,0,0-18.71,18.71v81.05h-81A18.78,18.78,0,0,0,183,481.29v37.42a18.78,18.78,0,0,0,18.71,18.7h81v81.05a18.79,18.79,0,0,0,18.71,18.71h37.42a18.78,18.78,0,0,0,18.71-18.71V537.41h81.05a18.78,18.78,0,0,0,18.71-18.7V481.29a18.78,18.78,0,0,0-18.71-18.71H357.58V381.53a18.78,18.78,0,0,0-18.71-18.71H301.45m689.36,15.24a61,61,0,1,0,61,61,61,61,0,0,0-61-61M868.87,500a61,61,0,1,0,61,61,61,61,0,0,0-61-61M320.16,179.91H930A320.13,320.13,0,1,1,705.87,728.63H544.13a320.1,320.1,0,1,1-224-548.72ZM929.84,728.62c126.07,0,228.63-102.56,228.63-228.62S1055.91,271.37,929.84,271.37H320.16C194.1,271.37,91.54,373.93,91.54,500S194.1,728.62,320.16,728.62h.77a228,228,0,0,0,162.43-68.55l0,0,22.41-22.87H744.19l22.49,22.9a228,228,0,0,0,162.44,68.55Zm-628.42-381h37.51a34,34,0,0,1,33.9,33.9v65.86h65.86a34,34,0,0,1,33.89,33.89v37.55a34,34,0,0,1-33.89,33.89H372.83v65.87a34,34,0,0,1-33.9,33.89H301.39a34,34,0,0,1-33.89-33.89V552.66H201.63a34,34,0,0,1-33.89-33.89V481.22a34,34,0,0,1,33.89-33.89H267.5V381.47a34,34,0,0,1,33.89-33.9Zm689.39,15.25a76,76,0,1,1-29.67,6A75.74,75.74,0,0,1,990.81,362.82ZM868.87,484.75a76.08,76.08,0,1,1-29.67,6A75.67,75.67,0,0,1,868.87,484.75Z" transform="translate(0 -179.91)" fill="#171717"/>
</svg>
